HIERARCHY
ROOT SpineBase
{
  OFFSET 0.000000 0.000000 0.000000
  CHANNELS 6 Xposition Yposition Zposition Zrotation Xrotation Yrotation
  JOINT SpineMid
  {
    OFFSET 0.000000 29.746896 0.000000
    CHANNELS 3 Zrotation Xrotation Yrotation
    JOINT SpineShoulder
    {
      OFFSET -0.165394 21.922113 -0.359292
      CHANNELS 3 Zrotation Xrotation Yrotation
      JOINT Neck
      {
        OFFSET 0.046344 7.222278 -0.533549
        CHANNELS 3 Zrotation Xrotation Yrotation
        JOINT Head
        {
          OFFSET 3.024023 13.650196 0.173246
          CHANNELS 3 Zrotation Xrotation Yrotation
          End Site
          {
            OFFSET 0 0 0
          }
        }
      }
      JOINT ShoulderLeft
      {
        OFFSET -11.240931 -2.205930 -11.462016
        CHANNELS 3 Zrotation Xrotation Yrotation
        JOINT ElbowLeft
        {
          OFFSET -4.992624 -26.044149 -2.369011
          CHANNELS 3 Zrotation Xrotation Yrotation
          JOINT WristLeft
          {
            OFFSET -0.305215 -23.291316 -1.715309
            CHANNELS 3 Zrotation Xrotation Yrotation
            JOINT HandLeft
            {
              OFFSET 0.693384 -4.052289 1.113208
              CHANNELS 3 Zrotation Xrotation Yrotation
              JOINT HandTipLeft
              {
                OFFSET -0.352637 -6.534524 0.406191
                CHANNELS 3 Zrotation Xrotation Yrotation
                End Site
                {
                  OFFSET 0 0 0
                }
              }
              JOINT ThumbLeft
              {
                OFFSET -4.660254 1.289321 -1.698021
                CHANNELS 3 Zrotation Xrotation Yrotation
                End Site
                {
                  OFFSET 0 0 0
                }
              }
            }
          }
        }
      }
      JOINT ShoulderRight
      {
        OFFSET 12.626723 -3.397121 9.588215
        CHANNELS 3 Zrotation Xrotation Yrotation
        JOINT ElbowRight
        {
          OFFSET -0.142875 -28.415944 6.597332
          CHANNELS 3 Zrotation Xrotation Yrotation
          JOINT WristRight
          {
            OFFSET 0.116040 -23.141152 -2.925990
            CHANNELS 3 Zrotation Xrotation Yrotation
            JOINT HandRight
            {
              OFFSET -2.085485 -3.866888 -2.329788
              CHANNELS 3 Zrotation Xrotation Yrotation
              JOINT HandTipRight
              {
                OFFSET -1.072797 -4.885061 -0.721550
                CHANNELS 3 Zrotation Xrotation Yrotation
                End Site
                {
                  OFFSET 0 0 0
                }
              }
              JOINT ThumbRight
              {
                OFFSET -0.733046 0.980168 -3.086549
                CHANNELS 3 Zrotation Xrotation Yrotation
                End Site
                {
                  OFFSET 0 0 0
                }
              }
            }
          }
        }
      }
    }
  }
  JOINT HipLeft
  {
    OFFSET -5.028775 1.976856 -7.035266
    CHANNELS 3 Zrotation Xrotation Yrotation
    JOINT KneeLeft
    {
      OFFSET -5.428838 -27.167946 -1.936832
      CHANNELS 3 Zrotation Xrotation Yrotation
      JOINT AnkleLeft
      {
        OFFSET -4.592922 -33.597839 1.889063
        CHANNELS 3 Zrotation Xrotation Yrotation
        JOINT FootLeft
        {
          OFFSET 4.274761 -7.679162 -1.213260
          CHANNELS 3 Zrotation Xrotation Yrotation
          End Site
          {
            OFFSET 0 0 0
          }
        }
      }
    }
  }
  JOINT HipRight
  {
    OFFSET 5.930511 0.128870 0.185230
    CHANNELS 3 Zrotation Xrotation Yrotation
    JOINT KneeRight
    {
      OFFSET -4.576784 -27.755591 4.605921
      CHANNELS 3 Zrotation Xrotation Yrotation
      JOINT AnkleRight
      {
        OFFSET -9.149375 -28.845954 -0.438112
        CHANNELS 3 Zrotation Xrotation Yrotation
        JOINT FootRight
        {
          OFFSET 2.807807 -8.112538 -2.509823
          CHANNELS 3 Zrotation Xrotation Yrotation
          End Site
          {
            OFFSET 0 0 0
          }
        }
      }
    }
  }
}
MOTION
Frames: 9
Frame Time: 0.033333
-44.244063 67.021046 328.549471 -0.000000 0.000000 -33.378779 -0.000000 0.000000 33.378779 -0.000000 0.000000 0.000000 -0.000000 0.000000 0.000000 0.000000 0.000000 0.000000 -0.000000 0.000000 0.000000 -0.000000 0.000000 0.000000 -0.000000 0.000000 0.000000 -0.000000 0.000000 0.000000 0.000000 0.000000 0.000000 0.000000 0.000000 0.000000 -0.000000 0.000000 0.000000 -0.000000 0.000000 0.000000 -0.000000 0.000000 0.000000 -0.000000 0.000000 0.000000 0.000000 0.000000 0.000000 0.000000 0.000000 0.000000 -0.000000 0.000000 33.378779 -0.000000 0.000000 0.000000 -0.000000 0.000000 0.000000 0.000000 0.000000 0.000000 -0.000000 0.000000 33.378779 -0.000000 0.000000 0.000000 -0.000000 0.000000 0.000000 0.000000 0.000000 0.000000
-44.259438 67.011841 328.423162 0.036124 0.280193 -33.353158 0.123876 -0.253906 33.353344 -0.000000 0.000000 0.000000 0.534334 0.704133 -0.166217 0.000000 0.000000 0.000000 -0.569664 0.985588 -0.131994 1.458330 1.542734 0.038802 0.900936 6.096742 2.032099 -1.922637 -4.033278 -2.389345 0.000000 0.000000 0.000000 0.000000 0.000000 0.000000 0.962331 -0.214086 0.226215 1.570048 0.733074 -0.560611 2.056526 -2.524826 -1.295134 -3.718776 0.289296 2.009206 0.000000 0.000000 0.000000 0.000000 0.000000 0.000000 0.123876 -0.253906 33.353344 -0.000000 0.000000 0.000000 -0.000000 0.000000 0.000000 0.000000 0.000000 0.000000 0.123876 -0.253906 33.353344 -0.000000 0.000000 0.000000 2.703495 -4.366825 -2.253466 0.000000 0.000000 0.000000
-44.260259 67.017490 328.290923 0.093732 0.561958 -33.340160 0.230556 -0.520987 33.340749 -0.000000 0.000000 0.000000 0.971744 1.274761 -0.306094 0.000000 0.000000 0.000000 -0.979673 1.910386 -0.259982 3.049081 2.873253 0.059822 1.902722 13.934736 4.313132 -4.288668 -10.062968 -5.504019 0.000000 0.000000 0.000000 0.000000 0.000000 0.000000 1.839462 -0.352261 0.434254 2.937699 1.404953 -1.093239 5.394179 -5.183832 -2.994041 -8.356457 1.023601 4.636094 0.000000 0.000000 0.000000 0.000000 0.000000 0.000000 0.230556 -0.520987 33.340749 -0.000000 0.000000 0.000000 -0.000000 0.000000 0.000000 0.000000 0.000000 0.000000 0.230556 -0.520987 33.340749 -0.000000 0.000000 0.000000 4.396796 -7.249072 -3.616216 0.000000 0.000000 0.000000
-44.246527 67.037991 328.152754 0.172920 0.845422 -33.339137 0.320189 -0.801326 33.340100 -0.000000 0.000000 0.000000 1.312272 1.713860 -0.416973 0.000000 0.000000 0.000000 -1.222355 2.766253 -0.388036 4.765656 3.991340 0.058922 2.839656 21.912559 6.466509 -7.018376 -16.418014 -8.975563 0.000000 0.000000 0.000000 0.000000 0.000000 0.000000 2.639549 -0.418060 0.624204 4.085175 2.025368 -1.587450 9.824913 -7.672728 -5.175579 -13.749415 1.543001 7.966719 0.000000 0.000000 0.000000 0.000000 0.000000 0.000000 0.320189 -0.801326 33.340100 -0.000000 0.000000 0.000000 0.154090 0.709842 0.369214 0.000000 0.000000 0.000000 0.320189 -0.801326 33.340100 -0.000000 0.000000 0.000000 5.195005 -8.590792 -4.226713 0.000000 0.000000 0.000000
-44.218240 67.073346 328.008654 0.273808 1.130710 -33.349356 0.392907 -1.095039 33.350409 0.428681 0.840720 0.023142 1.127480 1.182291 -0.503493 0.000000 0.000000 0.000000 -1.717827 2.706131 -0.568297 6.602112 4.897846 0.034123 3.551467 27.990038 8.116836 -9.429049 -21.155705 -11.963955 0.000000 0.000000 0.000000 0.000000 0.000000 0.000000 2.941007 -1.254553 0.816251 5.000505 2.603139 -2.035071 14.658526 -9.402770 -7.956346 -19.129779 1.026520 11.756826 0.000000 0.000000 0.000000 0.000000 0.000000 0.000000 0.392907 -1.095039 33.350409 -0.000000 0.000000 0.000000 -0.057999 0.864176 0.490222 0.000000 0.000000 0.000000 0.368868 -2.019772 33.387189 0.528975 0.758887 -0.040937 5.157094 -8.390888 -4.155072 0.000000 0.000000 0.000000
-44.175399 67.123554 327.858624 0.396534 1.417951 -33.370004 0.448819 -1.402282 33.370589 0.576693 1.095255 0.030086 1.127001 1.109104 -0.553099 0.000000 0.000000 0.000000 -1.755941 3.148476 -0.722445 8.552466 5.593494 -0.014222 3.910819 30.923982 9.113093 -10.549764 -23.271013 -13.554998 0.000000 0.000000 0.000000 0.000000 0.000000 0.000000 3.459036 -1.435487 0.986549 5.675851 3.145785 -2.429845 18.633722 -9.518900 -11.458636 -22.992690 -1.182689 15.352685 0.000000 0.000000 0.000000 0.000000 0.000000 0.000000 0.448819 -1.402282 33.370589 0.025450 -1.004247 0.138877 -0.422236 1.982583 0.479801 0.000000 0.000000 0.000000 0.409277 -2.485230 33.410383 0.629355 0.882203 -0.045981 4.275224 -6.646913 -3.394155 0.000000 0.000000 0.000000
-44.082780 67.229205 327.636030 0.604971 1.823990 -33.300103 0.495827 -1.856623 33.298507 0.808444 1.475140 0.039891 0.811996 0.573116 -0.523898 0.000000 0.000000 0.000000 -1.527502 3.562449 -0.943221 11.362317 6.375070 -0.133028 2.197907 27.895882 9.308716 -1.530573 -20.461990 -8.721334 0.000000 0.000000 0.000000 0.000000 0.000000 0.000000 4.124855 -1.718234 1.223627 7.120503 2.970445 -2.982146 15.516208 4.133271 -21.610713 -15.558521 -13.367248 19.925502 0.000000 0.000000 0.000000 0.000000 0.000000 0.000000 0.495827 -1.856623 33.298507 -0.044376 -1.381275 0.185668 -1.372243 2.463669 0.690670 0.000000 0.000000 0.000000 0.439387 -3.133206 33.342654 0.748877 1.035417 -0.053370 1.107300 -0.366824 -0.464902 0.000000 0.000000 0.000000
-43.991934 67.324805 327.440479 0.808848 2.183054 -33.318141 0.523254 -2.268478 33.313090 1.033734 1.832966 0.048129 0.471050 0.038914 -0.492790 0.000000 0.000000 0.000000 -1.186674 3.835926 -1.146344 13.935858 6.721530 -0.232519 1.046858 25.426545 9.515209 2.906394 -17.093320 -6.947588 0.000000 0.000000 0.000000 0.000000 0.000000 0.000000 4.588291 -1.795052 1.403212 7.240192 3.545272 -3.306036 20.599715 9.384096 -30.574928 -14.648832 -21.701740 26.404320 0.000000 0.000000 0.000000 0.000000 0.000000 0.000000 0.523254 -2.268478 33.313090 -0.082646 -1.705701 0.227102 -2.061637 2.956897 0.900046 0.000000 0.000000 0.000000 0.293085 -3.689834 33.314750 0.972973 1.061375 -0.022636 -1.579461 3.651754 1.794076 0.000000 0.000000 0.000000
-43.913873 67.415032 327.270863 0.985186 2.472638 -33.424091 0.417526 -1.717363 33.422956 0.833585 1.322307 0.055958 0.195398 -0.407027 -0.469145 0.000000 0.000000 0.000000 -0.658470 3.913539 -1.313817 15.939608 6.620464 -0.292523 -2.560055 18.962623 8.726440 8.021959 -13.339272 -4.291671 0.000000 0.000000 0.000000 0.000000 0.000000 0.000000 4.828044 -1.738855 1.510211 6.274717 4.639045 -3.404334 19.449099 9.153027 -29.298156 -11.586728 -22.123347 26.578839 0.000000 0.000000 0.000000 0.000000 0.000000 0.000000 0.539738 -2.606302 33.415108 -0.138471 -1.942010 0.255086 -2.611014 3.173419 0.993070 0.000000 0.000000 0.000000 0.277743 -4.087952 33.408380 1.034409 1.092620 -0.018434 -3.916881 6.433860 3.640194 0.000000 0.000000 0.000000
